<svg xmlns="http://www.w3.org/2000/svg" viewBox="0 0 251.68460078330517 280"><g><svg viewBox="0 0 278.2696 309.57590475343983" height="280" width="251.68460078330517"><g><svg viewBox="0 0 278.2696 309.57590475343983" height="309.57590475343983" width="278.2696"><g id="textblocktransform"><svg viewBox="0 0 278.2696 309.57590475343983" height="309.57590475343983" width="278.2696" id="textblock"><g><svg viewBox="0 0 278.2696 278.2696" height="278.2696" width="278.2696"><g transform="matrix(1,0,0,1,89.94321971048298,90.54387497812334)"><svg viewBox="0 0 98.38316057903407 97.18185004375334" height="97.18185004375334" width="98.38316057903407"><g><svg xmlns="http://www.w3.org/2000/svg" xmlns:xlink="http://www.w3.org/1999/xlink" version="1.1" x="0" y="0" viewBox="5.284999847412109 5.830999851226807 89.42999267578125 88.33800506591797" enable-background="new 0 0 100 100" xml:space="preserve" height="97.18185004375334" width="98.38316057903407" class="icon-o-0" data-fill-palette-color="accent" id="o-0"><g fill="#ed2647" data-fill-palette-color="accent"><path d="M69.631 64.898L50 18.45 30.369 64.986l-1.402 5.871h0.208c-0.123 0-0.208 1.501-0.208 2.454 0 11.616 9.417 20.858 21.033 20.858s21.033-9.153 21.033-20.771c0-0.953-0.085-2.542-0.208-2.542h0.208L69.631 64.898z" fill="#ed2647" data-fill-palette-color="accent"/><path d="M94.715 37.205l-0.83-3.726L82.251 5.831 70.617 33.565l-0.83 3.64h0.106c-0.062 0-0.106 0.679-0.106 1.208 0 6.882 5.579 12.289 12.464 12.289S94.715 45.384 94.715 38.5c0-0.528-0.044-1.295-0.107-1.295H94.715z" fill="#ed2647" data-fill-palette-color="accent"/><path d="M30.106 37.205h0.107l-0.83-3.726L17.749 5.831 6.117 33.565l-0.832 3.64h0.108c-0.063 0-0.108 0.679-0.108 1.208 0 6.882 5.579 12.289 12.464 12.289 6.885 0 12.464-5.317 12.464-12.201C30.213 37.972 30.169 37.205 30.106 37.205z" fill="#ed2647" data-fill-palette-color="accent"/></g></svg></g></svg></g><g><path d="M13.735 192.115L10.192 181.925 36.048 172.934 39.123 181.777C39.955 184.168 40.066 186.182 39.458 187.819 38.846 189.464 37.5 190.648 35.419 191.372V191.372C33.945 191.885 32.563 192 31.274 191.718 29.989 191.427 28.923 190.699 28.078 189.532V189.532L28.908 189.594C29.212 191.63 28.959 193.349 28.149 194.751 27.336 196.146 25.953 197.184 23.998 197.864V197.864C21.708 198.66 19.649 198.55 17.821 197.533 15.997 196.509 14.635 194.702 13.735 192.115ZM23.338 181.863L15.215 184.687 17.202 190.4C17.677 191.766 18.372 192.747 19.289 193.343 20.207 193.946 21.375 194 22.792 193.508V193.508C24.329 192.973 25.251 192.178 25.557 191.121 25.859 190.073 25.781 188.891 25.324 187.575V187.575ZM33.851 178.208L26.962 180.603 28.447 184.873C28.865 186.075 29.438 186.939 30.167 187.465 30.89 187.994 31.912 188.028 33.235 187.569V187.569C34.563 187.107 35.35 186.443 35.595 185.578 35.84 184.713 35.754 183.679 35.336 182.477V182.477ZM27.53 219.789L19.578 205.601 43.459 192.217 45.541 195.933 25.008 207.44 30.877 217.913ZM37.746 232.529V232.529C36.062 230.541 35.012 228.389 34.595 226.074 34.173 223.763 34.401 221.477 35.277 219.216 36.153 216.956 37.692 214.893 39.895 213.027V213.027C42.092 211.165 44.378 209.988 46.751 209.496 49.125 209.003 51.42 209.153 53.635 209.944 55.846 210.74 57.793 212.132 59.477 214.12V214.12C61.165 216.113 62.218 218.262 62.635 220.568 63.052 222.884 62.822 225.172 61.946 227.432 61.07 229.693 59.533 231.754 57.336 233.615V233.615C55.133 235.481 52.845 236.66 50.471 237.153 48.097 237.645 45.805 237.494 43.595 236.698 41.384 235.911 39.434 234.522 37.746 232.529ZM40.896 229.86V229.86C42.178 231.373 43.589 232.349 45.13 232.791 46.662 233.231 48.229 233.211 49.832 232.731 51.435 232.26 52.964 231.407 54.42 230.174V230.174C55.872 228.944 56.964 227.576 57.697 226.068 58.429 224.57 58.706 223.028 58.529 221.44 58.342 219.852 57.608 218.301 56.326 216.789V216.789C55.045 215.276 53.638 214.3 52.107 213.859 50.566 213.418 48.996 213.436 47.398 213.912 45.795 214.392 44.268 215.247 42.817 216.476V216.476C41.36 217.71 40.266 219.076 39.534 220.574 38.796 222.076 38.521 223.621 38.708 225.21 38.886 226.797 39.615 228.347 40.896 229.86ZM61.54 254.148V254.148C59.434 252.614 57.906 250.771 56.954 248.62 55.998 246.474 55.679 244.199 55.996 241.795 56.314 239.392 57.322 237.023 59.022 234.69V234.69C60.717 232.362 62.66 230.679 64.851 229.639 67.041 228.6 69.306 228.203 71.646 228.449 73.981 228.701 76.202 229.593 78.308 231.127V231.127C80.419 232.665 81.95 234.505 82.9 236.647 83.852 238.798 84.169 241.076 83.852 243.479 83.534 245.883 82.528 248.249 80.832 250.576V250.576C79.133 252.91 77.188 254.596 74.998 255.635 72.807 256.675 70.544 257.069 68.208 256.817 65.874 256.575 63.651 255.685 61.54 254.148ZM63.971 250.81V250.81C65.573 251.977 67.175 252.593 68.777 252.658 70.369 252.724 71.888 252.334 73.332 251.489 74.778 250.653 76.063 249.464 77.186 247.921V247.921C78.306 246.383 79.044 244.796 79.4 243.158 79.758 241.529 79.663 239.965 79.116 238.464 78.559 236.965 77.479 235.632 75.877 234.464V234.464C74.275 233.297 72.677 232.681 71.085 232.614 69.483 232.55 67.962 232.937 66.522 233.777 65.078 234.623 63.796 235.814 62.676 237.351V237.351C61.552 238.894 60.811 240.48 60.454 242.109 60.092 243.743 60.19 245.309 60.746 246.808 61.294 248.309 62.369 249.643 63.971 250.81ZM88.198 268.486L78.834 264.476 89.61 239.312 98.974 243.321C101.394 244.357 103.33 245.773 104.783 247.568 106.228 249.367 107.085 251.432 107.355 253.762 107.616 256.096 107.18 258.586 106.046 261.234V261.234C104.91 263.887 103.408 265.922 101.542 267.337 99.667 268.756 97.581 269.561 95.285 269.75 92.98 269.944 90.618 269.522 88.198 268.486ZM92.019 244.507L84.26 262.625 89.709 264.959C91.507 265.728 93.168 265.999 94.694 265.771 96.228 265.539 97.595 264.875 98.793 263.778 99.997 262.683 100.99 261.225 101.77 259.403V259.403C102.551 257.58 102.921 255.856 102.882 254.229 102.846 252.611 102.383 251.167 101.492 249.896 100.606 248.628 99.265 247.61 97.467 246.84V246.84ZM126.663 278.161L116.537 277.051 119.523 249.839 129.648 250.95C132.265 251.237 134.529 252.028 136.442 253.322 138.348 254.623 139.768 256.348 140.705 258.499 141.634 260.656 141.941 263.166 141.627 266.028V266.028C141.312 268.898 140.468 271.281 139.094 273.179 137.713 275.082 135.952 276.459 133.811 277.308 131.662 278.164 129.279 278.448 126.663 278.161ZM123.339 254.108L121.19 273.701 127.082 274.347C129.025 274.56 130.694 274.336 132.087 273.673 133.488 273.005 134.602 271.972 135.429 270.573 136.263 269.176 136.788 267.492 137.004 265.521V265.521C137.22 263.551 137.072 261.793 136.562 260.248 136.056 258.71 135.193 257.463 133.97 256.507 132.755 255.552 131.175 254.968 129.231 254.755V254.755ZM158.839 277.893V277.893C156.255 278.226 153.878 277.939 151.708 277.031 149.539 276.13 147.743 274.697 146.321 272.733 144.899 270.77 144.003 268.357 143.633 265.494V265.494C143.264 262.638 143.518 260.08 144.394 257.819 145.27 255.558 146.642 253.713 148.51 252.283 150.379 250.86 152.606 249.981 155.19 249.647V249.647C157.78 249.313 160.156 249.597 162.319 250.499 164.489 251.407 166.285 252.843 167.707 254.806 169.129 256.77 170.025 259.18 170.394 262.036V262.036C170.764 264.899 170.511 267.46 169.635 269.721 168.758 271.982 167.386 273.824 165.517 275.247 163.656 276.676 161.43 277.558 158.839 277.893ZM158.31 273.798V273.798C160.276 273.544 161.863 272.89 163.071 271.835 164.272 270.789 165.107 269.462 165.575 267.855 166.05 266.254 166.165 264.507 165.921 262.614V262.614C165.677 260.728 165.121 259.067 164.254 257.633 163.394 256.205 162.249 255.134 160.82 254.42 159.385 253.714 157.685 253.488 155.719 253.742V253.742C153.753 253.996 152.169 254.647 150.967 255.693 149.759 256.748 148.921 258.075 148.453 259.675 147.985 261.282 147.873 263.028 148.117 264.915V264.915C148.361 266.808 148.914 268.468 149.773 269.897 150.634 271.332 151.782 272.403 153.217 273.109 154.646 273.822 156.344 274.052 158.31 273.798ZM182.438 272.115L178.429 273.555 169.177 247.791 173.337 246.297 191.838 260.157 185.316 241.995 189.344 240.549 198.596 266.313 195.249 267.515 175.539 252.903ZM212.388 244.86L214.459 248.067 204.703 254.367 202.632 251.16ZM219.768 252.973L200.295 237.912 201.274 237.28 206.991 261.224 203.371 263.562 196.74 235.258 200.318 232.947 223.38 250.641ZM230.237 244.358L227.145 247.288 208.315 227.418 211.407 224.488 219.043 232.546 228.726 223.369 221.09 215.312 224.182 212.382 243.012 232.251 239.92 235.181 231.483 226.278 221.8 235.455ZM254.389 216.578V216.578C252.966 218.721 251.376 220.213 249.618 221.056 247.86 221.898 245.992 222.157 244.014 221.832 242.04 221.51 240.011 220.656 237.924 219.271V219.271L224.844 210.584 227.207 207.027 239.357 215.097C240.412 215.797 241.462 216.383 242.509 216.853 243.555 217.323 244.576 217.59 245.569 217.655 246.558 217.717 247.516 217.497 248.444 216.996 249.375 216.489 250.252 215.616 251.075 214.378V214.378C251.901 213.133 252.367 211.984 252.473 210.929 252.575 209.879 252.404 208.909 251.958 208.018 251.507 207.123 250.863 206.29 250.026 205.516 249.189 204.743 248.243 204.007 247.188 203.306V203.306L235.038 195.236 237.4 191.68 250.479 200.367C252.566 201.752 254.14 203.292 255.202 204.986 256.269 206.684 256.755 208.506 256.66 210.453 256.565 212.4 255.808 214.442 254.389 216.578ZM267.202 189.514L263.255 199.556 237.777 189.542 241.202 180.829C242.128 178.472 243.355 176.871 244.882 176.025 246.418 175.175 248.211 175.153 250.261 175.959V175.959C251.714 176.53 252.837 177.342 253.632 178.396 254.418 179.453 254.752 180.7 254.634 182.136V182.136L254.045 181.548C255.14 179.805 256.451 178.665 257.979 178.129 259.504 177.599 261.23 177.712 263.156 178.469V178.469C265.412 179.356 266.903 180.78 267.629 182.742 268.346 184.708 268.204 186.965 267.202 189.514ZM253.238 191.042L261.242 194.188 263.454 188.559C263.983 187.213 264.094 186.015 263.786 184.966 263.482 183.911 262.631 183.109 261.235 182.56V182.56C259.72 181.965 258.503 181.969 257.582 182.571 256.671 183.17 255.96 184.117 255.45 185.414V185.414ZM242.879 186.971L249.667 189.639 251.32 185.431C251.786 184.247 251.913 183.218 251.703 182.343 251.499 181.472 250.745 180.78 249.442 180.268V180.268C248.133 179.753 247.104 179.745 246.355 180.242 245.605 180.739 244.998 181.579 244.532 182.763V182.763Z" fill="#ff0202" data-fill-palette-color="primary"/><path d="M32.302 100.506L28.758 110.697 2.902 101.706 5.977 92.863C6.808 90.472 7.97 88.823 9.462 87.917 10.963 87.006 12.754 86.913 14.835 87.636V87.636C16.309 88.149 17.464 88.916 18.3 89.937 19.128 90.962 19.511 92.194 19.45 93.634V93.634L18.838 93.07C19.863 91.285 21.128 90.094 22.633 89.497 24.136 88.906 25.865 88.951 27.819 89.63V89.63C30.109 90.427 31.656 91.79 32.459 93.722 33.254 95.657 33.201 97.919 32.302 100.506ZM18.41 102.589L26.533 105.413 28.519 99.701C28.994 98.335 29.057 97.134 28.708 96.098 28.361 95.055 27.48 94.288 26.063 93.795V93.795C24.526 93.261 23.309 93.313 22.413 93.951 21.526 94.586 20.854 95.561 20.396 96.877V96.877ZM7.897 98.933L14.786 101.329 16.27 97.059C16.688 95.857 16.775 94.823 16.529 93.958 16.291 93.095 15.51 92.434 14.188 91.974V91.974C12.86 91.512 11.831 91.545 11.102 92.071 10.373 92.597 9.8 93.462 9.382 94.664V94.664ZM44.701 75.933L36.75 90.121 12.87 76.738 14.952 73.022 35.485 84.529 41.354 74.057ZM53.648 66.95V66.95C51.964 68.938 50.015 70.328 47.799 71.119 45.589 71.915 43.297 72.067 40.923 71.574 38.549 71.082 36.261 69.903 34.059 68.037V68.037C31.861 66.175 30.325 64.114 29.449 61.854 28.572 59.593 28.343 57.305 28.759 54.99 29.181 52.679 30.234 50.529 31.918 48.541V48.541C33.606 46.548 35.553 45.157 37.759 44.366 39.975 43.574 42.269 43.425 44.643 43.917 47.017 44.41 49.303 45.587 51.5 47.448V47.448C53.702 49.314 55.242 51.377 56.118 53.638 56.994 55.898 57.221 58.184 56.799 60.495 56.387 62.806 55.337 64.957 53.648 66.95ZM50.498 64.281V64.281C51.779 62.769 52.511 61.216 52.693 59.623 52.875 58.04 52.598 56.498 51.861 54.995 51.133 53.492 50.041 52.124 48.584 50.89V50.89C47.133 49.66 45.604 48.808 43.996 48.333 42.398 47.857 40.831 47.837 39.294 48.273 37.758 48.719 36.35 49.698 35.068 51.21V51.21C33.787 52.723 33.055 54.271 32.872 55.854 32.69 57.446 32.966 58.992 33.698 60.49 34.435 61.992 35.529 63.358 36.981 64.587V64.587C38.437 65.821 39.964 66.676 41.562 67.152 43.165 67.632 44.735 67.65 46.271 67.204 47.808 66.768 49.217 65.794 50.498 64.281ZM73.883 48.639V48.639C71.777 50.173 69.555 51.063 67.215 51.309 64.879 51.56 62.616 51.166 60.426 50.127 58.235 49.087 56.29 47.401 54.591 45.068V45.068C52.895 42.74 51.889 40.374 51.572 37.971 51.254 35.567 51.571 33.29 52.523 31.138 53.479 28.992 55.009 27.152 57.115 25.618V25.618C59.226 24.081 61.447 23.188 63.778 22.941 66.117 22.695 68.382 23.091 70.573 24.131 72.763 25.17 74.706 26.854 76.402 29.181V29.181C78.101 31.515 79.109 33.883 79.427 36.287 79.744 38.69 79.425 40.965 78.469 43.111 77.523 45.259 75.994 47.101 73.883 48.639ZM71.452 45.302V45.302C73.055 44.134 74.132 42.799 74.685 41.294 75.236 39.799 75.331 38.234 74.97 36.6 74.617 34.968 73.879 33.38 72.756 31.837V31.837C71.636 30.3 70.351 29.11 68.901 28.269 67.461 27.429 65.943 27.039 64.346 27.1 62.749 27.17 61.149 27.789 59.546 28.956V28.956C57.944 30.123 56.867 31.454 56.316 32.949 55.763 34.454 55.665 36.021 56.023 37.649 56.384 39.283 57.125 40.869 58.245 42.406V42.406C59.369 43.949 60.651 45.141 62.091 45.981 63.535 46.826 65.056 47.214 66.654 47.143 68.25 47.083 69.85 46.469 71.452 45.302ZM96.121 35.551L86.756 39.561 75.981 14.396 85.345 10.386C87.764 9.35 90.125 8.926 92.427 9.113 94.726 9.309 96.812 10.113 98.684 11.526 100.554 12.948 102.055 14.982 103.188 17.63V17.63C104.325 20.283 104.761 22.774 104.497 25.101 104.23 27.438 103.373 29.502 101.926 31.295 100.475 33.096 98.54 34.515 96.121 35.551ZM81.403 16.238L89.161 34.356 94.61 32.023C96.408 31.254 97.75 30.238 98.638 28.976 99.529 27.706 99.991 26.258 100.024 24.634 100.064 23.007 99.693 21.283 98.913 19.46V19.46C98.132 17.638 97.14 16.18 95.936 15.085 94.74 13.995 93.375 13.333 91.841 13.102 90.312 12.867 88.649 13.135 86.852 13.905V13.905ZM129.087 27.32L118.961 28.431 115.976 1.22 126.101 0.109C128.718-0.178 131.1 0.103 133.248 0.952 135.39 1.808 137.151 3.185 138.532 5.082 139.906 6.986 140.75 9.369 141.065 12.232V12.232C141.379 15.101 141.072 17.611 140.142 19.761 139.206 21.918 137.786 23.644 135.879 24.938 133.967 26.239 131.703 27.033 129.087 27.32ZM120.627 4.56L122.776 24.152 128.668 23.506C130.612 23.292 132.192 22.712 133.409 21.763 134.631 20.807 135.494 19.557 135.999 18.012 136.51 16.467 136.657 14.71 136.441 12.739V12.739C136.225 10.768 135.7 9.084 134.866 7.687 134.04 6.295 132.926 5.265 131.526 4.597 130.132 3.928 128.463 3.7 126.519 3.913V3.913ZM156.538 28.641V28.641C153.954 28.307 151.729 27.425 149.86 25.996 147.991 24.572 146.619 22.73 145.743 20.47 144.867 18.209 144.613 15.647 144.983 12.785V12.785C145.352 9.929 146.248 7.519 147.67 5.555 149.092 3.591 150.888 2.156 153.058 1.247 155.228 0.346 157.604 0.062 160.188 0.396V0.396C162.778 0.731 165.005 1.609 166.867 3.032 168.735 4.462 170.107 6.307 170.983 8.568 171.859 10.828 172.113 13.387 171.744 16.243V16.243C171.374 19.105 170.478 21.518 169.056 23.482 167.634 25.446 165.838 26.878 163.669 27.78 161.506 28.689 159.129 28.976 156.538 28.641ZM157.067 24.546V24.546C159.033 24.8 160.734 24.571 162.17 23.859 163.599 23.152 164.743 22.081 165.604 20.646 166.47 19.218 167.026 17.558 167.271 15.665V15.665C167.514 13.778 167.399 12.031 166.925 10.424 166.456 8.823 165.621 7.497 164.42 6.443 163.212 5.396 161.625 4.745 159.659 4.491V4.491C157.693 4.237 155.996 4.463 154.567 5.17 153.131 5.883 151.983 6.953 151.123 8.382 150.263 9.817 149.71 11.478 149.467 13.364V13.364C149.222 15.257 149.334 17.004 149.803 18.604 150.27 20.211 151.108 21.538 152.317 22.585 153.518 23.639 155.101 24.292 157.067 24.546ZM176.224 32.345L172.215 30.905 181.468 5.141 185.628 6.635 191.084 29.1 197.607 10.937 201.634 12.384 192.382 38.147 189.035 36.946 183.123 13.133ZM213.961 39.469L211.89 42.676 202.135 36.376 204.206 33.169ZM209.603 49.533L215.319 25.589 216.298 26.221 196.826 41.282 193.205 38.944 216.276 21.256 219.854 23.567 213.214 51.866ZM217.263 55.942L214.171 53.012 233.002 33.142 236.093 36.072 228.458 44.129 238.141 53.306 245.777 45.249 248.868 48.179 230.038 68.048 226.946 65.119 235.384 56.215 225.7 47.039ZM237.69 80.998V80.998C236.267 78.856 235.508 76.811 235.413 74.865 235.318 72.918 235.804 71.096 236.871 69.398 237.933 67.704 239.507 66.164 241.594 64.778V64.778L254.673 56.091 257.035 59.648 244.885 67.718C243.83 68.418 242.883 69.159 242.044 69.942 241.205 70.724 240.563 71.561 240.117 72.452 239.678 73.339 239.509 74.307 239.611 75.357 239.717 76.412 240.181 77.559 241.004 78.797V78.797C241.83 80.041 242.709 80.917 243.64 81.424 244.568 81.925 245.529 82.143 246.523 82.078 247.522 82.009 248.541 81.739 249.578 81.267 250.615 80.795 251.661 80.209 252.716 79.509V79.509L264.866 71.439 267.228 74.995 254.149 83.682C252.062 85.068 250.032 85.921 248.059 86.243 246.081 86.568 244.212 86.31 242.455 85.467 240.697 84.625 239.109 83.135 237.69 80.998ZM249.536 103.829L245.589 93.787 271.067 83.774 274.492 92.488C275.418 94.844 275.61 96.852 275.067 98.511 274.521 100.179 273.223 101.416 271.172 102.222V102.222C269.72 102.793 268.344 102.963 267.044 102.733 265.749 102.494 264.655 101.808 263.764 100.676V100.676L264.596 100.705C264.981 102.727 264.796 104.455 264.043 105.888 263.286 107.315 261.945 108.407 260.019 109.164V109.164C257.763 110.051 255.701 110.023 253.834 109.08 251.97 108.129 250.538 106.378 249.536 103.829ZM258.722 93.202L250.719 96.348 252.931 101.976C253.46 103.323 254.194 104.275 255.134 104.835 256.075 105.4 257.244 105.408 258.641 104.859V104.859C260.155 104.264 261.045 103.432 261.308 102.364 261.569 101.305 261.444 100.127 260.934 98.831V98.831ZM269.081 89.131L262.294 91.799 263.947 96.006C264.413 97.19 265.02 98.031 265.77 98.528 266.513 99.027 267.536 99.021 268.838 98.509V98.509C270.147 97.995 270.907 97.3 271.118 96.426 271.328 95.552 271.201 94.522 270.735 93.338V93.338Z" fill="#ff0202" data-fill-palette-color="primary"/><path d="M3.141 143.138c0-5.891 4.776-10.666 10.667-10.667 5.891 0 10.666 4.776 10.666 10.667 0 5.891-4.776 10.666-10.666 10.666-5.891 0-10.666-4.776-10.667-10.666zM254.736 143.138c0-5.891 4.776-10.666 10.666-10.667 5.891 0 10.666 4.776 10.667 10.667 0 5.891-4.776 10.666-10.667 10.666-5.891 0-10.666-4.776-10.666-10.666z" fill="#ff0202" data-fill-palette-color="primary"/></g></svg></g><g transform="matrix(1,0,0,1,53.1494936,295.44848256828755)"><svg viewBox="0 0 171.97061280000003 14.127422185152273" height="14.127422185152273" width="171.97061280000003"><g transform="matrix(1,0,0,1,0,0)"><svg width="171.97061280000003" viewBox="1.5499999523162842 -37.099998474121094 461.2900085449219 37.89999771118164" height="14.127422185152273" data-palette-color="#ed2647"><path d="M22.25 0.6Q18.1 0.6 17.55-2.95L17.55-2.95 17.2-3.1Q12.1 0.45 11.15 0.45L11.15 0.45Q6.8 0.45 4.17-2.5 1.55-5.45 1.55-10.3L1.55-10.3Q1.55-13.9 3.23-16.9 4.9-19.9 7.78-21.63 10.65-23.35 14.1-23.35L14.1-23.35Q15.35-23.35 17.15-23.2L17.15-23.2 17.15-30.65Q17.15-32.1 16.7-32.75 16.25-33.4 15.2-33.4L15.2-33.4Q14.85-33.4 14.45-33.33 14.05-33.25 13.95-33.2L13.95-33.2 14.2-35.55Q16.7-35.85 19.35-36.38 22-36.9 22.75-37.1L22.75-37.1 23.1-36.35Q22.5-35.45 22.05-26.2 21.6-16.95 21.6-5.85L21.6-5.85Q21.6-4.85 22.1-4.25 22.6-3.65 23.45-3.65L23.45-3.65Q24.1-3.65 24.7-3.9 25.3-4.15 25.68-4.4 26.05-4.65 26.15-4.75L26.15-4.75 26.9-3.8Q26.75-3.5 26.1-2.6 25.45-1.7 24.43-0.73 23.4 0.25 22.25 0.6L22.25 0.6ZM12.45-3.45Q13.4-3.45 14.45-3.95 15.5-4.45 16.23-4.98 16.95-5.5 17.15-5.65L17.15-5.65 17.15-18.85Q17-18.95 16.45-19.2 15.9-19.45 14.95-19.68 14-19.9 12.8-19.9L12.8-19.9Q9.9-19.9 8.22-17.8 6.55-15.7 6.55-12.05L6.55-12.05Q6.55-9.6 7.33-7.63 8.1-5.65 9.43-4.55 10.75-3.45 12.45-3.45L12.45-3.45ZM38.65 0.6Q35.65 0.6 33.37-0.83 31.1-2.25 29.82-4.8 28.55-7.35 28.55-10.65L28.55-10.65Q28.55-14.3 30.07-17.2 31.6-20.1 34.3-21.75 37-23.4 40.35-23.4L40.35-23.4Q43.35-23.4 45.65-22 47.95-20.6 49.2-18.05 50.45-15.5 50.45-12.15L50.45-12.15Q50.45-8.5 48.92-5.6 47.4-2.7 44.7-1.05 42 0.6 38.65 0.6L38.65 0.6ZM39.85-2.45Q42.35-2.45 43.77-4.48 45.2-6.5 45.2-10.15L45.2-10.15Q45.2-14.75 43.52-17.4 41.85-20.05 39-20.05L39-20.05Q36.5-20.05 35.1-18 33.7-15.95 33.7-12.3L33.7-12.3Q33.7-7.7 35.37-5.08 37.05-2.45 39.85-2.45L39.85-2.45ZM68.34-2Q69.7-2.4 70.3-3.1 70.9-3.8 70.9-5.05L70.9-5.05 71.09-14.4Q71.09-16.75 70.15-17.98 69.2-19.2 67.34-19.2L67.34-19.2Q65.05-19.2 62-16.95L62-16.95Q61.85-13.8 61.8-12.85L61.8-12.85Q61.5-6.45 61.5-5.1L61.5-5.1Q61.5-3.7 61.87-3.13 62.25-2.55 63.2-2.55L63.2-2.55Q63.65-2.55 64.12-2.6 64.59-2.65 64.75-2.65L64.75-2.65 64.84-2.45 64.4 0.15Q63.9 0.1 62.47 0.05 61.05 0 59.5 0L59.5 0Q58.05 0 56.32 0.13 54.6 0.25 54.1 0.3L54.1 0.3 54.45-2.25Q55.9-2.45 56.47-3.08 57.05-3.7 57.05-5.1L57.05-5.1 57.05-16.6Q57.05-18.3 56.52-18.95 56-19.6 54.65-19.6L54.65-19.6 54.05-19.6 53.85-19.85 54.05-21.9Q56.5-22.25 58.92-22.78 61.35-23.3 62.05-23.45L62.05-23.45 62.4-23Q62.3-22.7 62.1-21.7 61.9-20.7 61.85-19.65L61.85-19.65 62-19.45Q63.4-20.6 65.7-22 68-23.4 68.95-23.4L68.95-23.4Q72.3-23.4 74.2-21.68 76.09-19.95 76.09-16.95L76.09-16.95Q76.09-15.75 75.75-12.05L75.75-12.05Q75.3-6.2 75.3-5.15L75.3-5.15Q75.3-3.75 75.7-3.13 76.09-2.5 77-2.5L77-2.5Q77.5-2.5 77.97-2.55 78.45-2.6 78.65-2.6L78.65-2.6 78.75-2.4 78.3 0.15Q77.8 0.1 76.4 0.05 75 0 73.45 0L73.45 0Q72.15 0 70.4 0.2 68.65 0.4 68.09 0.5L68.09 0.5 68.34-2ZM98.69 0.6Q94.39 0.6 93.99-3.35L93.99-3.35 93.69-3.45Q91.94-1.7 90.47-0.65 88.99 0.4 88.19 0.4L88.19 0.4Q85.34 0.4 83.47-1.5 81.59-3.4 81.59-6.25L81.59-6.25Q81.59-7.8 82.34-8.9 83.09-10 84.34-10.35L84.34-10.35 93.89-12.8 93.94-14.55Q93.94-16.9 92.79-18.2 91.64-19.5 89.59-19.5L89.59-19.5Q88.24-19.5 86.69-18.85 85.14-18.2 83.64-17.05L83.64-17.05 83.34-17.25 82.59-19.75Q84.94-21.15 87.52-22.28 90.09-23.4 91.24-23.4L91.24-23.4Q94.89-23.4 96.84-21.63 98.79-19.85 98.79-16.8L98.79-16.8Q98.79-16.2 98.39-12.3L98.39-12.3Q97.84-7 97.84-5.85L97.84-5.85Q97.84-4.85 98.34-4.25 98.84-3.65 99.79-3.65L99.79-3.65Q100.49-3.65 101.27-4 102.04-4.35 102.49-4.75L102.49-4.75 103.24-3.8Q102.44-2.4 101.19-1.1 99.94 0.2 98.69 0.6L98.69 0.6ZM89.49-3.6Q90.34-3.6 91.49-4.17 92.64-4.75 93.59-5.6L93.59-5.6 93.79-10.5 87.69-8.75Q86.34-8.3 86.34-6.85L86.34-6.85Q86.34-5.45 87.22-4.53 88.09-3.6 89.49-3.6L89.49-3.6ZM113.84 0.6Q110.34 0.6 108.84-0.83 107.34-2.25 107.34-5.5L107.34-5.5 107.34-17.3Q107.34-18.75 106.77-19.28 106.19-19.8 104.54-19.85L104.54-19.85 104.24-20.2 104.49-22.1Q106.14-22.9 107.74-24 109.34-25.1 110.39-25.93 111.44-26.75 111.69-27L111.69-27 112.89-26.5Q112.84-26.25 112.69-25.23 112.54-24.2 112.39-22.45L112.39-22.45 119.09-22.6 119.29-22.45 118.79-19.45 112.19-19.6Q111.84-14.25 111.84-7.85L111.84-7.85Q111.84-5.5 112.67-4.48 113.49-3.45 115.44-3.45L115.44-3.45Q116.14-3.45 116.84-3.65 117.54-3.85 118.02-4.05 118.49-4.25 118.64-4.3L118.64-4.3 119.19-2.85Q118.89-2.6 117.87-1.78 116.84-0.95 115.64-0.18 114.44 0.6 113.84 0.6L113.84 0.6ZM132.54 0.6Q127.54 0.6 124.59-2.48 121.64-5.55 121.64-10.65L121.64-10.65Q121.64-14.1 123.16-17.03 124.69-19.95 127.31-21.68 129.94-23.4 133.04-23.4L133.04-23.4Q136.94-23.4 138.94-21.43 140.94-19.45 140.94-15.6L140.94-15.6Q140.94-14.05 140.64-12.95L140.64-12.95 139.99-12.4 126.59-12.4Q126.59-8.1 128.41-5.8 130.24-3.5 133.59-3.5L133.59-3.5Q136.39-3.5 139.59-5L139.59-5 139.89-4.85 140.59-2.95Q138.79-1.6 136.49-0.5 134.19 0.6 132.54 0.6L132.54 0.6ZM126.69-14.65L134.74-15.05Q135.39-15.1 135.61-15.35 135.84-15.6 135.84-16.3L135.84-16.3Q135.84-18.2 134.89-19.23 133.94-20.25 132.14-20.25L132.14-20.25Q129.99-20.25 128.51-18.78 127.04-17.3 126.69-14.65L126.69-14.65ZM163.58 0.55Q161.28 0.55 158.88 0.25 156.48-0.05 156.48-0.1L156.48-0.1 155.98-0.6 155.98-30.65Q155.98-32.15 155.53-32.77 155.08-33.4 154.03-33.4L154.03-33.4Q153.63-33.4 153.31-33.35 152.98-33.3 152.93-33.3L152.93-33.3 152.73-33.5 152.98-35.6Q155.43-35.9 158.13-36.43 160.83-36.95 161.63-37.1L161.63-37.1 161.93-36.3Q161.58-35.8 161.26-31.4 160.93-27 160.73-19.95L160.73-19.95Q162.83-21.5 164.41-22.43 165.98-23.35 166.48-23.35L166.48-23.35Q169.33-23.35 171.51-22 173.68-20.65 174.88-18.2 176.08-15.75 176.08-12.5L176.08-12.5Q176.08-8.85 174.43-5.88 172.78-2.9 169.93-1.18 167.08 0.55 163.58 0.55L163.58 0.55ZM164.83-2.8Q167.78-2.8 169.43-4.88 171.08-6.95 171.08-10.6L171.08-10.6Q171.08-13.1 170.33-15.1 169.58-17.1 168.23-18.23 166.88-19.35 165.23-19.35L165.23-19.35Q164.23-19.35 162.93-18.7 161.63-18.05 160.63-17.1L160.63-17.1 160.48-3.75Q161.23-3.35 162.48-3.08 163.73-2.8 164.83-2.8L164.83-2.8ZM178.73 0.55L179.03-2Q180.28-2.3 180.86-2.85 181.43-3.4 181.56-4.23 181.68-5.05 181.68-6.75L181.68-6.75 181.68-30.65Q181.68-32.25 181.31-32.8 180.93-33.35 179.73-33.35L179.73-33.35Q179.03-33.35 178.58-33.3L178.58-33.3 178.38-33.45 178.63-35.6Q183.13-36.15 187.28-37.1L187.28-37.1 187.58-36.3Q186.98-35.1 186.56-25.85 186.13-16.6 186.13-5.05L186.13-5.05Q186.13-3.7 186.51-3.1 186.88-2.5 187.78-2.5L187.78-2.5 189.48-2.6 189.58-2.35 189.13 0.15Q188.48 0.15 188.08 0.1L188.08 0.1Q185.58 0 184.13 0L184.13 0Q181.93 0 178.73 0.55L178.73 0.55ZM202.08 0.6Q199.08 0.6 196.8-0.83 194.53-2.25 193.25-4.8 191.98-7.35 191.98-10.65L191.98-10.65Q191.98-14.3 193.5-17.2 195.03-20.1 197.73-21.75 200.43-23.4 203.78-23.4L203.78-23.4Q206.78-23.4 209.08-22 211.38-20.6 212.63-18.05 213.88-15.5 213.88-12.15L213.88-12.15Q213.88-8.5 212.35-5.6 210.83-2.7 208.13-1.05 205.43 0.6 202.08 0.6L202.08 0.6ZM203.28-2.45Q205.78-2.45 207.2-4.48 208.63-6.5 208.63-10.15L208.63-10.15Q208.63-14.75 206.95-17.4 205.28-20.05 202.43-20.05L202.43-20.05Q199.93-20.05 198.53-18 197.13-15.95 197.13-12.3L197.13-12.3Q197.13-7.7 198.8-5.08 200.48-2.45 203.28-2.45L203.28-2.45ZM227.38 0.6Q224.38 0.6 222.1-0.83 219.83-2.25 218.55-4.8 217.28-7.35 217.28-10.65L217.28-10.65Q217.28-14.3 218.8-17.2 220.33-20.1 223.03-21.75 225.73-23.4 229.08-23.4L229.08-23.4Q232.08-23.4 234.38-22 236.68-20.6 237.93-18.05 239.18-15.5 239.18-12.15L239.18-12.15Q239.18-8.5 237.65-5.6 236.13-2.7 233.43-1.05 230.73 0.6 227.38 0.6L227.38 0.6ZM228.58-2.45Q231.08-2.45 232.5-4.48 233.93-6.5 233.93-10.15L233.93-10.15Q233.93-14.75 232.25-17.4 230.58-20.05 227.73-20.05L227.73-20.05Q225.23-20.05 223.83-18 222.43-15.95 222.43-12.3L222.43-12.3Q222.43-7.7 224.1-5.08 225.78-2.45 228.58-2.45L228.58-2.45ZM263.12 0.6Q258.97 0.6 258.42-2.95L258.42-2.95 258.07-3.1Q252.97 0.45 252.02 0.45L252.02 0.45Q247.67 0.45 245.05-2.5 242.42-5.45 242.42-10.3L242.42-10.3Q242.42-13.9 244.1-16.9 245.77-19.9 248.65-21.63 251.52-23.35 254.97-23.35L254.97-23.35Q256.22-23.35 258.02-23.2L258.02-23.2 258.02-30.65Q258.02-32.1 257.57-32.75 257.12-33.4 256.07-33.4L256.07-33.4Q255.72-33.4 255.32-33.33 254.92-33.25 254.82-33.2L254.82-33.2 255.07-35.55Q257.57-35.85 260.22-36.38 262.87-36.9 263.62-37.1L263.62-37.1 263.97-36.35Q263.37-35.45 262.92-26.2 262.47-16.95 262.47-5.85L262.47-5.85Q262.47-4.85 262.97-4.25 263.47-3.65 264.32-3.65L264.32-3.65Q264.97-3.65 265.57-3.9 266.17-4.15 266.55-4.4 266.92-4.65 267.02-4.75L267.02-4.75 267.77-3.8Q267.62-3.5 266.97-2.6 266.32-1.7 265.3-0.73 264.27 0.25 263.12 0.6L263.12 0.6ZM253.32-3.45Q254.27-3.45 255.32-3.95 256.37-4.45 257.1-4.98 257.82-5.5 258.02-5.65L258.02-5.65 258.02-18.85Q257.87-18.95 257.32-19.2 256.77-19.45 255.82-19.68 254.87-19.9 253.67-19.9L253.67-19.9Q250.77-19.9 249.1-17.8 247.42-15.7 247.42-12.05L247.42-12.05Q247.42-9.6 248.2-7.63 248.97-5.65 250.3-4.55 251.62-3.45 253.32-3.45L253.32-3.45ZM274.82 0.55Q273.27 0.55 272.45-0.35 271.62-1.25 271.62-2.65L271.62-2.65Q271.62-4.2 272.57-5.2 273.52-6.2 275.12-6.2L275.12-6.2Q276.67-6.2 277.52-5.3 278.37-4.4 278.37-2.95L278.37-2.95Q278.37-1.4 277.4-0.43 276.42 0.55 274.82 0.55L274.82 0.55ZM299.12 0.6Q297.42 0.6 296.04 0.33 294.67 0.05 293.87-0.23 293.07-0.5 292.87-0.6L292.87-0.6 292.67-1Q292.82-1.95 293.02-4.17 293.22-6.4 293.27-7.65L293.27-7.65 295.47-7.9Q295.52-4.95 296.62-3.65 297.72-2.35 300.17-2.35L300.17-2.35Q301.82-2.35 302.97-3.1 304.12-3.85 304.12-4.95L304.12-4.95Q304.12-6.1 303.02-7.03 301.92-7.95 298.67-9.6L298.67-9.6Q295.77-11.05 294.44-12.58 293.12-14.1 293.12-16.05L293.12-16.05Q293.12-18.15 294.37-19.83 295.62-21.5 297.84-22.45 300.07-23.4 302.82-23.4L302.82-23.4Q304.12-23.4 305.29-23.2 306.47-23 307.19-22.8 307.92-22.6 308.12-22.55L308.12-22.55 308.27-22.2Q308.17-21.7 307.82-19.85 307.47-18 307.32-15.95L307.32-15.95 305.02-15.75Q305.02-15.9 305.07-16.25 305.12-16.6 305.12-16.95L305.12-16.95Q305.12-18.75 304.19-19.58 303.27-20.4 301.32-20.4L301.32-20.4Q299.77-20.4 298.72-19.68 297.67-18.95 297.67-17.9L297.67-17.9Q297.67-16.8 298.59-15.88 299.52-14.95 301.62-13.85L301.62-13.85Q304.42-12.45 305.97-11.35 307.52-10.25 308.14-9.18 308.77-8.1 308.77-6.7L308.77-6.7Q308.77-4.75 307.47-3.08 306.17-1.4 303.94-0.4 301.72 0.6 299.12 0.6L299.12 0.6ZM329.71 0.6Q325.41 0.6 325.01-3.35L325.01-3.35 324.71-3.45Q322.96-1.7 321.49-0.65 320.01 0.4 319.21 0.4L319.21 0.4Q316.36 0.4 314.49-1.5 312.61-3.4 312.61-6.25L312.61-6.25Q312.61-7.8 313.36-8.9 314.11-10 315.36-10.35L315.36-10.35 324.91-12.8 324.96-14.55Q324.96-16.9 323.81-18.2 322.66-19.5 320.61-19.5L320.61-19.5Q319.26-19.5 317.71-18.85 316.16-18.2 314.66-17.05L314.66-17.05 314.36-17.25 313.61-19.75Q315.96-21.15 318.54-22.28 321.11-23.4 322.26-23.4L322.26-23.4Q325.91-23.4 327.86-21.63 329.81-19.85 329.81-16.8L329.81-16.8Q329.81-16.2 329.41-12.3L329.41-12.3Q328.86-7 328.86-5.85L328.86-5.85Q328.86-4.85 329.36-4.25 329.86-3.65 330.81-3.65L330.81-3.65Q331.51-3.65 332.29-4 333.06-4.35 333.51-4.75L333.51-4.75 334.26-3.8Q333.46-2.4 332.21-1.1 330.96 0.2 329.71 0.6L329.71 0.6ZM320.51-3.6Q321.36-3.6 322.51-4.17 323.66-4.75 324.61-5.6L324.61-5.6 324.81-10.5 318.71-8.75Q317.36-8.3 317.36-6.85L317.36-6.85Q317.36-5.45 318.24-4.53 319.11-3.6 320.51-3.6L320.51-3.6ZM342.26 0.8Q341.56-1.55 339.49-8.47 337.41-15.4 336.56-17.95L336.56-17.95Q335.71-20.45 333.26-20.5L333.26-20.5 333.16-20.7 333.51-22.85 337.91-22.8Q339.86-22.8 341.79-22.95 343.71-23.1 344.26-23.15L344.26-23.15 344.36-22.9 344.01-20.75Q342.36-20.65 341.84-20.4 341.31-20.15 341.31-19.45L341.31-19.45Q341.31-18.6 342.86-12.78 344.41-6.95 345.01-4.9L345.01-4.9 345.36-4.9Q346.11-6.85 346.36-7.4L346.36-7.4Q348.81-13.7 349.71-16.18 350.61-18.65 350.61-19.35L350.61-19.35Q350.61-20 350.21-20.23 349.81-20.45 348.66-20.45L348.66-20.45 347.01-20.45 346.81-20.75 347.11-22.85 352.56-22.8 356.86-22.85 356.46-20.5Q355.36-20.3 354.84-19.68 354.31-19.05 353.46-17.1L353.46-17.1 346.71 0 342.26 0.8ZM368.16 0.6Q363.16 0.6 360.21-2.48 357.26-5.55 357.26-10.65L357.26-10.65Q357.26-14.1 358.78-17.03 360.31-19.95 362.93-21.68 365.56-23.4 368.66-23.4L368.66-23.4Q372.56-23.4 374.56-21.43 376.56-19.45 376.56-15.6L376.56-15.6Q376.56-14.05 376.26-12.95L376.26-12.95 375.61-12.4 362.21-12.4Q362.21-8.1 364.03-5.8 365.86-3.5 369.21-3.5L369.21-3.5Q372.01-3.5 375.21-5L375.21-5 375.51-4.85 376.21-2.95Q374.41-1.6 372.11-0.5 369.81 0.6 368.16 0.6L368.16 0.6ZM362.31-14.65L370.36-15.05Q371.01-15.1 371.23-15.35 371.46-15.6 371.46-16.3L371.46-16.3Q371.46-18.2 370.51-19.23 369.56-20.25 367.76-20.25L367.76-20.25Q365.61-20.25 364.13-18.78 362.66-17.3 362.31-14.65L362.31-14.65ZM388.85 0.55L389.15-2Q390.4-2.3 390.98-2.85 391.55-3.4 391.68-4.23 391.8-5.05 391.8-6.75L391.8-6.75 391.8-30.65Q391.8-32.25 391.43-32.8 391.05-33.35 389.85-33.35L389.85-33.35Q389.15-33.35 388.7-33.3L388.7-33.3 388.5-33.45 388.75-35.6Q393.25-36.15 397.4-37.1L397.4-37.1 397.7-36.3Q397.1-35.1 396.68-25.85 396.25-16.6 396.25-5.05L396.25-5.05Q396.25-3.7 396.63-3.1 397-2.5 397.9-2.5L397.9-2.5 399.6-2.6 399.7-2.35 399.25 0.15Q398.6 0.15 398.2 0.1L398.2 0.1Q395.7 0 394.25 0L394.25 0Q392.05 0 388.85 0.55L388.85 0.55ZM402.2 0.6L402.5-1.95Q404-2.35 404.65-3.08 405.3-3.8 405.3-5.15L405.3-5.15 405.3-17Q405.3-18.45 404.85-19.1 404.4-19.75 403.35-19.75L403.35-19.75Q403.05-19.75 402.65-19.68 402.25-19.6 402.15-19.55L402.15-19.55 402.35-21.85Q404.8-22.2 407.33-22.73 409.85-23.25 410.6-23.4L410.6-23.4 410.95-22.7Q410.45-21.65 410.13-16.48 409.8-11.3 409.8-5.05L409.8-5.05Q409.8-3.7 410.18-3.13 410.55-2.55 411.45-2.55L411.45-2.55Q411.95-2.55 412.43-2.6 412.9-2.65 413.05-2.65L413.05-2.65 413.15-2.4 412.75 0.15Q412.25 0.1 410.83 0.05 409.4 0 407.8 0L407.8 0Q406.4 0 404.58 0.25 402.75 0.5 402.2 0.6L402.2 0.6ZM407.2-28.55Q405.8-28.55 405.05-29.4 404.3-30.25 404.3-31.55L404.3-31.55Q404.3-33.05 405.25-34.02 406.2-35 407.7-35L407.7-35Q409.05-35 409.83-34.15 410.6-33.3 410.6-32L410.6-32Q410.6-30.5 409.65-29.53 408.7-28.55 407.2-28.55L407.2-28.55ZM416.7 0.25L417-2.2Q419.85-2.55 419.85-5.1L419.85-5.1 419.85-17.8Q419.8-19 419.15-19.38 418.5-19.75 416.65-19.85L416.65-19.85 416.45-20.15 416.8-22.2 419.85-22.75 419.85-23.05Q419.85-27.35 421.32-30.53 422.8-33.7 425.5-35.4 428.2-37.1 431.8-37.1L431.8-37.1Q433.3-37.1 434.57-36.88 435.85-36.65 436.6-36.43 437.35-36.2 437.55-36.1L437.55-36.1 437.7-35.5Q437.55-35.2 437.05-34.13 436.55-33.05 436.05-31.75L436.05-31.75 435.45-31.6Q435.25-31.75 434.52-32.2 433.8-32.65 432.57-33.05 431.35-33.45 429.95-33.45L429.95-33.45Q427.2-33.45 425.92-31.4 424.65-29.35 424.55-24.85L424.55-24.85 424.55-22.45Q427.1-22.45 428.87-22.5 430.65-22.55 431.2-22.6L431.2-22.6 431.4-22.45 430.9-19.45Q430.4-19.5 428.7-19.55 427-19.6 424.5-19.6L424.5-19.6 424.3-5.2Q424.3-3.9 424.87-3.28 425.45-2.65 426.65-2.65L426.65-2.65Q427.8-2.65 428.62-2.7 429.45-2.75 429.7-2.75L429.7-2.75 429.8-2.55 429.4 0.15Q428.65 0.15 426.65 0.08 424.65 0 422.75 0L422.75 0Q421 0 419.12 0.1 417.25 0.2 416.7 0.25L416.7 0.25ZM443.25 0.6Q438.25 0.6 435.3-2.48 432.35-5.55 432.35-10.65L432.35-10.65Q432.35-14.1 433.87-17.03 435.4-19.95 438.02-21.68 440.65-23.4 443.75-23.4L443.75-23.4Q447.65-23.4 449.65-21.43 451.65-19.45 451.65-15.6L451.65-15.6Q451.65-14.05 451.35-12.95L451.35-12.95 450.7-12.4 437.3-12.4Q437.3-8.1 439.12-5.8 440.95-3.5 444.3-3.5L444.3-3.5Q447.1-3.5 450.3-5L450.3-5 450.6-4.85 451.3-2.95Q449.5-1.6 447.2-0.5 444.9 0.6 443.25 0.6L443.25 0.6ZM437.4-14.65L445.45-15.05Q446.1-15.1 446.32-15.35 446.55-15.6 446.55-16.3L446.55-16.3Q446.55-18.2 445.6-19.23 444.65-20.25 442.85-20.25L442.85-20.25Q440.7-20.25 439.22-18.78 437.75-17.3 437.4-14.65L437.4-14.65ZM459.29 0.55Q457.74 0.55 456.92-0.35 456.09-1.25 456.09-2.65L456.09-2.65Q456.09-4.2 457.04-5.2 457.99-6.2 459.59-6.2L459.59-6.2Q461.14-6.2 461.99-5.3 462.84-4.4 462.84-2.95L462.84-2.95Q462.84-1.4 461.87-0.43 460.89 0.55 459.29 0.55L459.29 0.55Z" opacity="1" transform="matrix(1,0,0,1,0,0)" fill="#ed2647" class="undefined-text-1" data-fill-palette-color="secondary" id="text-1"/></svg></g></svg></g></svg></g></svg></g></svg></g><defs/></svg>